<?xml version="1.0" encoding="utf-8"?>
<!-- Generator: Adobe Illustrator 25.2.0, SVG Export Plug-In . SVG Version: 6.00 Build 0)  -->
<svg version="1.1" id="Layer_1" xmlns="http://www.w3.org/2000/svg" xmlns:xlink="http://www.w3.org/1999/xlink" x="0px" y="0px"
	 viewBox="0 0 48 48" style="enable-background:new 0 0 48 48;" xml:space="preserve">
<style type="text/css">
	.st0{fill:#FFFFFF;}
	.st1{fill:#D9DCE1;}
	.st2{fill:#0079B5;}
</style>
<g id="Icon" transform="translate(-8 -8)">
	<circle id="Ellipse" class="st0" cx="32" cy="32" r="24"/>
	<path id="Path" class="st1" d="M32,13c10.5,0,19,8.5,19,19s-8.5,19-19,19s-19-8.5-19-19S21.5,13,32,13L32,13 M32,8
		C18.7,8,8,18.7,8,32s10.7,24,24,24s24-10.7,24-24C56,18.8,45.3,8,32,8L32,8z"/>
</g>
<path class="st2" d="M34.7,16.4l-2.9-2.3c-0.1-0.1-0.2-0.1-0.3-0.1c-0.1,0-0.2,0.1-0.3,0.1L20.8,27.5c0,0-4.1-3.9-4.2-4
	s-0.3-0.3-0.5-0.3c-0.2,0-0.3,0.2-0.5,0.3c-0.1,0.1-1.5,1.6-2.3,2.4c0,0-0.1,0.1-0.1,0.1c-0.1,0.1-0.1,0.2-0.1,0.3
	c0,0.1,0,0.2,0.1,0.3l0.1,0.1c0,0,7.2,7,7.4,7.1c0.1,0.1,0.3,0.3,0.5,0.3c0.2,0,0.4-0.2,0.5-0.3l13-16.6c0.1-0.1,0.1-0.2,0.1-0.3
	C34.8,16.6,34.8,16.5,34.7,16.4z"/>
</svg>
