<svg xmlns="http://www.w3.org/2000/svg" width="18" height="22" viewBox="0 0 18 22">
  <g id="Icon" transform="translate(-112.89 -48)">
    <path id="Path" d="M128.149,70H115.631a2.745,2.745,0,0,1-2.741-2.742V50.742A2.745,2.745,0,0,1,115.631,48h8.209a.82.82,0,0,1,.58.24l6.23,6.232a.821.821,0,0,1,.24.581v12.2A2.745,2.745,0,0,1,128.149,70ZM115.631,49.642a1.1,1.1,0,0,0-1.1,1.1V67.258a1.1,1.1,0,0,0,1.1,1.1h12.519a1.1,1.1,0,0,0,1.1-1.1V55.393L123.5,49.642Z" transform="translate(0 0)" fill="#0079b5"/>
    <path id="Path-2" data-name="Path" d="M305.169,55.869h-4.308a2.744,2.744,0,0,1-2.741-2.741V48.82a.82.82,0,0,1,1.641,0v4.308a1.1,1.1,0,0,0,1.1,1.1h4.308a.82.82,0,0,1,0,1.641Z" transform="translate(-175.099 0)" fill="#0079b5"/>
  </g>
</svg>
