<?xml version="1.0" encoding="utf-8"?>
<!-- Generator: Adobe Illustrator 25.2.1, SVG Export Plug-In . SVG Version: 6.00 Build 0)  -->
<svg version="1.1" id="Layer_1" xmlns="http://www.w3.org/2000/svg" xmlns:xlink="http://www.w3.org/1999/xlink" x="0px" y="0px"
	 viewBox="0 0 16 16" style="enable-background:new 0 0 16 16;" xml:space="preserve">
<path id="Icon" d="M8,11c-0.2,0-0.4-0.1-0.5-0.2L2.3,6.4C1.9,6.1,1.9,5.6,2.2,5.3c0.2-0.3,0.7-0.4,1-0.1c0,0,0,0,0,0l4.7,4l4.8-4
	c0.3-0.3,0.8-0.2,1.1,0.1c0,0,0,0,0,0c0.3,0.3,0.2,0.8-0.1,1.1l-5.2,4.4C8.4,10.9,8.2,11,8,11z"/>
</svg>
