<?xml version="1.0" encoding="utf-8"?>
<!-- Generator: Adobe Illustrator 25.2.1, SVG Export Plug-In . SVG Version: 6.00 Build 0)  -->
<svg version="1.1" id="Layer_1" xmlns="http://www.w3.org/2000/svg" xmlns:xlink="http://www.w3.org/1999/xlink" x="0px" y="0px"
	 viewBox="0 0 16 16" style="enable-background:new 0 0 16 16;" xml:space="preserve">
<path fill="#fff" id="Icon" d="M12,8c0,0.2-0.1,0.4-0.2,0.5l-4.4,5.2c-0.3,0.3-0.8,0.4-1.1,0.1c-0.3-0.2-0.4-0.7-0.1-1c0,0,0,0,0,0l4-4.7l-4-4.8
	C5.9,2.9,6,2.5,6.3,2.2c0,0,0,0,0,0C6.6,1.9,7.1,2,7.4,2.3l4.4,5.2C11.9,7.6,12,7.8,12,8z"/>
</svg>
