<?xml version="1.0" encoding="utf-8"?>
<!-- Generator: Adobe Illustrator 25.2.0, SVG Export Plug-In . SVG Version: 6.00 Build 0)  -->
<svg version="1.1" id="Layer_1" xmlns="http://www.w3.org/2000/svg" xmlns:xlink="http://www.w3.org/1999/xlink" x="0px" y="0px"
	 viewBox="0 0 48 48" style="enable-background:new 0 0 48 48;" xml:space="preserve">
<style type="text/css">
	.st0{fill:#DEE4E9;}
	.st1{fill:#0079B5;}
	.st2{fill:#FFFFFF;}
	.st3{fill:#016090;}
	.st4{fill:#D3D9DD;}
</style>
<g id="Icon" transform="translate(0)">
	<path id="Path" class="st0" d="M4,25.4L25.3,3.9c5.1-5.1,13.4-5.2,18.5-0.1c0,0,0.1,0.1,0.1,0.1c5.2,5.2,5.2,13.6,0.1,18.8
		L22.6,44.1c-5.1,5.1-13.4,5.2-18.5,0.1c0,0-0.1-0.1-0.1-0.1C-1.1,38.9-1.1,30.6,4,25.4z"/>
	<path id="Path-2" class="st1" d="M33.3,33.4l10.7-10.7c5.1-5.2,5.1-13.6-0.1-18.8c-5.1-5.1-13.4-5.2-18.5-0.1c0,0-0.1,0.1-0.1,0.1
		L14.7,14.6L33.3,33.4z"/>
	<path id="Path-3" class="st2" d="M34.6,9.2c-2.4,0-4.3-1.1-4.3-2.5s1.9-2.5,4.3-2.5S39,5.2,39,6.7S37,9.2,34.6,9.2z"/>
	<path id="Path-4" class="st3" d="M33.3,33.4L44,22.7c-4.4,2.9-9.1,5.4-14,7.4L33.3,33.4z"/>
	<path id="Path-5" class="st4" d="M33.3,33.4L22.6,44.1c-5.1,5.1-13.4,5.2-18.5,0.1c0,0-0.1-0.1-0.1-0.1c-5.1-5.2-5.2-13.5,0-18.7
		c3.5,11.4,16,9,26.1,4.7L33.3,33.4z"/>
</g>
</svg>
